<svg id="Component_33_1" data-name="Component 33 – 1" xmlns="http://www.w3.org/2000/svg" xmlns:xlink="http://www.w3.org/1999/xlink" width="171" height="66" viewBox="0 0 171 66">
  <defs>
    <clipPath id="clip-path">
      <rect id="Rectangle_69" data-name="Rectangle 69" width="147.507" height="50.302" fill="none"/>
    </clipPath>
  </defs>
  <g id="Group_152" data-name="Group 152" transform="translate(0 -0.028)">
    <rect id="Rectangle_70" data-name="Rectangle 70" width="171" height="66" rx="5" transform="translate(0 0.028)" fill="#fff"/>
    <g id="Group_150" data-name="Group 150" transform="translate(11.652 7.768)">
      <g id="Group_149" data-name="Group 149" clip-path="url(#clip-path)">
        <path id="Path_358" data-name="Path 358" d="M200.88,9.736v.486q0,8.672,0,17.343c0,.578.065.51-.507.511q-2.4,0-4.792,0c-.389,0-.393,0-.393-.4q0-12.528,0-25.056c0-.423-.022-.4.394-.4,2.312,0,4.625.008,6.937-.009a.655.655,0,0,1,.642.375q5.238,8.581,10.49,17.153a1.026,1.026,0,0,0,.343.431V2.838a2.484,2.484,0,0,0,0-.32c-.033-.25.087-.3.314-.3,1.688.007,3.377,0,5.065.006.309,0,.313.008.315.337,0,.441,0,.882,0,1.324q0,11.82,0,23.641c0,.638.081.551-.558.552-2.1,0-4.2-.012-6.3.013a.892.892,0,0,1-.9-.491q-5.328-8.739-10.689-17.458c-.087-.142-.177-.282-.265-.423l-.1.02" transform="translate(-95.879 -1.087)"/>
        <path id="Path_359" data-name="Path 359" d="M254.1,15.138q0-6.206,0-12.413c0-.544-.081-.5.474-.5h16.7c.375,0,.379-.041.378.364,0,.958,0,1.917,0,2.875,0,.578-.01,1.156,0,1.734.006.222-.066.283-.284.281-1.186-.01-2.373-.005-3.559-.005h-7.438a2.456,2.456,0,0,1-.274,0c-.226-.024-.342.047-.319.3.018.2,0,.395,0,.593q0,1.757,0,3.514c0,.451-.017.422.419.422h9.857c.228,0,.457.011.684,0,.2-.013.256.073.255.264q-.008,2.373,0,4.746c0,.2-.079.271-.269.255-.106-.009-.213,0-.319,0H260.284c-.56,0-.5-.029-.5.484q0,2.122,0,4.244c0,.592-.075.519.545.52q5.681,0,11.363,0h.228c.393,0,.4,0,.4.4,0,1.475,0,2.951,0,4.427,0,.525-.015.445-.442.446H254.267c-.113,0-.163-.06-.165-.168s0-.244,0-.365q0-6.207,0-12.413" transform="translate(-124.817 -1.094)"/>
        <path id="Path_360" data-name="Path 360" d="M169.6,5.709a13.4,13.4,0,0,1,4.462,5.935,13.88,13.88,0,0,1-9.923,18.589,10.94,10.94,0,0,1-3.12.3.643.643,0,0,1-.137-.469c-.005-1.85-.012-3.7,0-5.551a1.073,1.073,0,0,1,.029-.224c.079-.3.316-.34.57-.346a7.151,7.151,0,0,0,6.84-6.1,6.919,6.919,0,0,0-1.913-6.166,5.861,5.861,0,0,1-.747-.8c-.078-.244.089-.4.214-.563,1.112-1.451,2.215-2.909,3.334-4.354.1-.126.174-.3.387-.25" transform="translate(-79.027 -2.801)" fill="#b93b79"/>
        <path id="Path_361" data-name="Path 361" d="M147.883,23.946q-.008,3.2-.015,6.4a11.756,11.756,0,0,1-4.721-.852,13.559,13.559,0,0,1-8.734-10.162,13.749,13.749,0,0,1,5.1-13.821.7.7,0,0,1,.308-.185c.248.1.324.349.468.535,1,1.306,1.953,2.653,2.937,3.975.165.222.4.424.37.749a15.446,15.446,0,0,0-1.517,1.624,7.259,7.259,0,0,0,.709,9.386,6.908,6.908,0,0,0,4.725,2.164c.142.006.318-.02.366.187" transform="translate(-65.871 -2.617)" fill="#79468c"/>
        <path id="Path_362" data-name="Path 362" d="M99.431,15.7a.9.9,0,0,0,.3-.38q3.6-5.683,7.178-11.376a.718.718,0,0,1,.723-.4c.908.026,1.817.009,2.762.009a1.443,1.443,0,0,1-.273.5Q105.568,10.993,101,17.924a1.371,1.371,0,0,0-.238.8q.012,5.088.005,10.177c0,.107-.005.213,0,.32.008.143-.067.179-.194.178-.73,0-1.46,0-2.19,0-.171,0-.257-.052-.242-.235.009-.106,0-.213,0-.319q0-5.044.006-10.087a1.589,1.589,0,0,0-.284-.929q-4.546-6.89-9.073-13.792a1.349,1.349,0,0,1-.254-.455.747.747,0,0,1,.343-.031c.821,0,1.643.017,2.464-.011a.65.65,0,0,1,.644.368q3.582,5.693,7.18,11.375l.259.409" transform="translate(-43.492 -1.742)"/>
        <path id="Path_363" data-name="Path 363" d="M149.107,7.9q-1.694-2.306-3.387-4.615c-.134-.183-.243-.383-.364-.575a6.356,6.356,0,0,1,1.468-.98,13.824,13.824,0,0,1,12.111-.619,12.186,12.186,0,0,1,3.044,1.8,5.2,5.2,0,0,0-.864,1.041c-.963,1.223-1.893,2.471-2.833,3.711-.082.108-.146.229-.218.343-.176.079-.283-.059-.4-.135a7.263,7.263,0,0,0-8.112-.11c-.13.077-.244.25-.439.141" transform="translate(-71.401 0)" fill="#dc69a5"/>
        <path id="Path_364" data-name="Path 364" d="M17.129,20.539A5.537,5.537,0,0,0,12.8,16.006c-.419-.111-.856-.159-1.319-.242a1.732,1.732,0,0,1,.457-.169,5.608,5.608,0,0,0,3.082-2.144,5.945,5.945,0,0,0,1-3.715,5.622,5.622,0,0,0-3.329-5.192,10.307,10.307,0,0,0-4.508-.968c-2.555-.04-5.11-.017-7.665-.016-.569,0-.511-.089-.511.5Q0,16.5,0,28.93c0,.091.007.183,0,.274-.015.167.07.214.218.2.061-.005.122,0,.183,0H7.793a15.274,15.274,0,0,0,3.263-.286,8.327,8.327,0,0,0,4.384-2.372,6.649,6.649,0,0,0,1.689-6.206M2.62,10.437q0-2.051,0-4.1c0-.358.006-.368.34-.365,1.808.014,3.616-.041,5.424.034a5.715,5.715,0,0,1,2.733.761,4.2,4.2,0,0,1,2.014,4.312,4.306,4.306,0,0,1-3.508,3.611,7.916,7.916,0,0,1-1.762.193c-1.611,0-3.222,0-4.833,0-.41,0-.411.05-.411-.429q0-2.006,0-4.012m11.7,12.877a4.278,4.278,0,0,1-2.157,2.7,8.041,8.041,0,0,1-3.168.921,33.1,33.1,0,0,1-3.325.073c-.881.008-1.762,0-2.644,0-.4,0-.4,0-.4-.391q0-2.3,0-4.6,0-2.28,0-4.559c0-.377.005-.382.366-.382,1.839,0,3.678-.011,5.516.014a8.938,8.938,0,0,1,2.992.52,4.254,4.254,0,0,1,2.944,3.944,5.25,5.25,0,0,1-.122,1.765" transform="translate(0 -1.745)"/>
        <path id="Path_365" data-name="Path 365" d="M66.812,28.945q-4.648-10.7-9.3-21.39-.8-1.838-1.6-3.675c-.062-.141-.077-.327-.316-.323-.73.011-1.46.008-2.19,0a.244.244,0,0,0-.267.189c-.035.1-.086.194-.129.293q-5.415,12.448-10.827,24.9a.777.777,0,0,0-.135.45c.13.006.262.017.393.017q1.1,0,2.191,0c.493,0,.388.057.581-.4.838-1.987,1.664-3.979,2.5-5.965.2-.472.082-.412.62-.412q6.161,0,12.323,0c.538,0,.407-.063.625.406.013.027.019.058.031.086q1.233,2.941,2.469,5.88c.193.456.07.4.624.406q1.073,0,2.145,0a.793.793,0,0,0,.4-.036c.024-.165-.079-.289-.138-.423M48.882,20.19,54.494,6.631,60.071,20.19Z" transform="translate(-20.651 -1.747)"/>
        <rect id="Rectangle_66" data-name="Rectangle 66" width="49.67" height="3.988" transform="translate(68.226 46.314)" fill="#79468c"/>
        <rect id="Rectangle_67" data-name="Rectangle 67" width="13.34" height="3.988" transform="translate(134.167 46.314)" fill="#b93b79"/>
        <rect id="Rectangle_68" data-name="Rectangle 68" width="12.911" height="3.988" transform="translate(119.576 46.314)" fill="#dc69a5"/>
        <path id="Path_366" data-name="Path 366" d="M138.172,62.861h-3.989V61.287h9.657v1.575h-3.988V73.673h-1.68Z" transform="translate(-65.913 -30.105)"/>
        <path id="Path_367" data-name="Path 367" d="M156.138,61.287h8v1.575h-6.316v3.691H163.7v1.575h-5.878V72.1h6.63v1.575h-8.31Z" transform="translate(-76.697 -30.105)"/>
        <path id="Path_368" data-name="Path 368" d="M176.394,61.287h1.679V72.1h5.686v1.575h-7.366Z" transform="translate(-86.648 -30.105)"/>
        <path id="Path_369" data-name="Path 369" d="M193.779,61.287h7.995v1.575h-6.316v3.691h5.878v1.575h-5.878V72.1h6.63v1.575h-8.31Z" transform="translate(-95.188 -30.105)"/>
        <path id="Path_370" data-name="Path 370" d="M221.538,63.66a3.465,3.465,0,0,0-1.33-1.05,3.954,3.954,0,0,0-1.662-.367,4.457,4.457,0,0,0-1.9.394,4.364,4.364,0,0,0-1.452,1.076,4.905,4.905,0,0,0-.936,1.6,5.736,5.736,0,0,0-.332,1.968,5.427,5.427,0,0,0,.315,1.855,4.639,4.639,0,0,0,.91,1.54,4.262,4.262,0,0,0,1.452,1.05,4.694,4.694,0,0,0,1.942.385,3.861,3.861,0,0,0,1.872-.437,4.024,4.024,0,0,0,1.365-1.225l1.417,1.067a5.541,5.541,0,0,1-.489.551,4.919,4.919,0,0,1-.927.717,6.573,6.573,0,0,1-1.391.63,5.956,5.956,0,0,1-1.881.271,6.11,6.11,0,0,1-2.651-.56,6.489,6.489,0,0,1-3.718-5.843,7.255,7.255,0,0,1,.473-2.65,6.268,6.268,0,0,1,1.321-2.1,5.91,5.91,0,0,1,2.038-1.373,6.827,6.827,0,0,1,2.624-.49,6.418,6.418,0,0,1,2.406.473,4.485,4.485,0,0,1,1.933,1.452Z" transform="translate(-104.208 -29.801)"/>
        <path id="Path_371" data-name="Path 371" d="M241.479,73.684a6.68,6.68,0,0,1-2.606-.5,6.078,6.078,0,0,1-2.038-1.373,6.342,6.342,0,0,1-1.329-2.065,7.111,7.111,0,0,1,0-5.143,6.342,6.342,0,0,1,1.329-2.065,6.07,6.07,0,0,1,2.038-1.373,7.063,7.063,0,0,1,5.213,0,6.074,6.074,0,0,1,2.038,1.373,6.357,6.357,0,0,1,1.329,2.065,7.118,7.118,0,0,1,0,5.143,6.357,6.357,0,0,1-1.329,2.065,6.082,6.082,0,0,1-2.038,1.373,6.681,6.681,0,0,1-2.607.5m0-1.575a4.5,4.5,0,0,0,3.394-1.452,4.664,4.664,0,0,0,.945-1.566,5.68,5.68,0,0,0,0-3.831,4.661,4.661,0,0,0-.945-1.566,4.638,4.638,0,0,0-6.788,0,4.653,4.653,0,0,0-.945,1.566,5.68,5.68,0,0,0,0,3.831,4.656,4.656,0,0,0,.945,1.566,4.5,4.5,0,0,0,3.394,1.452" transform="translate(-115.448 -29.801)"/>
        <path id="Path_372" data-name="Path 372" d="M264.544,61.287h2.5l3.936,9.377h.07l3.9-9.377h2.5V73.673h-1.68V63.491h-.036L271.56,73.673h-1.12l-4.181-10.182h-.035V73.673h-1.68Z" transform="translate(-129.949 -30.105)"/>
      </g>
    </g>
  </g>
</svg>
